solid tool
   facet normal 0.000000e+000 -3.171728e-002 9.994969e-001
      outer loop
         vertex 3.000000e+000 -1.663481e+000 1.742076e+001
         vertex 3.000000e+000 -6.429396e-015 1.750000e+001
         vertex -1.700000e+001 -2.143132e-015 1.750000e+001
      endloop
   endfacet
   facet normal 0.000000e+000 3.171728e-002 9.994969e-001
      outer loop
         vertex -1.700000e+001 -2.143132e-015 1.750000e+001
         vertex 3.000000e+000 -6.429396e-015 1.750000e+001
         vertex -1.700000e+001 1.663481e+000 1.742076e+001
      endloop
   endfacet
   facet normal 0.000000e+000 6.343456e-002 9.979860e-001
      outer loop
         vertex 3.000000e+000 -6.429396e-015 1.750000e+001
         vertex 3.000000e+000 1.663481e+000 1.742076e+001
         vertex -1.700000e+001 1.663481e+000 1.742076e+001
      endloop
   endfacet
   facet normal 0.000000e+000 1.579170e-001 9.874524e-001
      outer loop
         vertex -1.700000e+001 1.663481e+000 1.742076e+001
         vertex 3.000000e+000 1.663481e+000 1.742076e+001
         vertex 3.000000e+000 4.930320e+000 1.679113e+001
      endloop
   endfacet
   facet normal 0.000000e+000 2.203939e-001 9.754109e-001
      outer loop
         vertex -1.700000e+001 1.663481e+000 1.742076e+001
         vertex 3.000000e+000 4.930320e+000 1.679113e+001
         vertex -1.700000e+001 4.930320e+000 1.679113e+001
      endloop
   endfacet
   facet normal 0.000000e+000 3.419398e-001 9.397218e-001
      outer loop
         vertex -1.700000e+001 4.930320e+000 1.679113e+001
         vertex 3.000000e+000 4.930320e+000 1.679113e+001
         vertex 3.000000e+000 8.018964e+000 1.555462e+001
      endloop
   endfacet
   facet normal 0.000000e+000 4.010089e-001 9.160742e-001
      outer loop
         vertex -1.700000e+001 4.930320e+000 1.679113e+001
         vertex 3.000000e+000 8.018964e+000 1.555462e+001
         vertex -1.700000e+001 8.018964e+000 1.555462e+001
      endloop
   endfacet
   facet normal 0.000000e+000 5.136040e-001 8.580273e-001
      outer loop
         vertex -1.700000e+001 8.018964e+000 1.555462e+001
         vertex 3.000000e+000 8.018964e+000 1.555462e+001
         vertex 3.000000e+000 1.081778e+001 1.375593e+001
      endloop
   endfacet
   facet normal 0.000000e+000 5.671303e-001 8.236281e-001
      outer loop
         vertex -1.700000e+001 8.018964e+000 1.555462e+001
         vertex 3.000000e+000 1.081778e+001 1.375593e+001
         vertex -1.700000e+001 1.081778e+001 1.375593e+001
      endloop
   endfacet
   facet normal 0.000000e+000 6.667053e-001 7.453214e-001
      outer loop
         vertex -1.700000e+001 1.081778e+001 1.375593e+001
         vertex 3.000000e+000 1.081778e+001 1.375593e+001
         vertex 3.000000e+000 1.322562e+001 1.146006e+001
      endloop
   endfacet
   facet normal 0.000000e+000 7.127541e-001 7.014139e-001
      outer loop
         vertex -1.700000e+001 1.081778e+001 1.375593e+001
         vertex 3.000000e+000 1.322562e+001 1.146006e+001
         vertex -1.700000e+001 1.322562e+001 1.146006e+001
      endloop
   endfacet
   facet normal 0.000000e+000 7.957101e-001 6.056777e-001
      outer loop
         vertex -1.700000e+001 1.322562e+001 1.146006e+001
         vertex 3.000000e+000 1.322562e+001 1.146006e+001
         vertex 3.000000e+000 1.515545e+001 8.750000e+000
      endloop
   endfacet
   facet normal 0.000000e+000 8.326172e-001 5.538489e-001
      outer loop
         vertex -1.700000e+001 1.322562e+001 1.146006e+001
         vertex 3.000000e+000 1.515545e+001 8.750000e+000
         vertex -1.700000e+001 1.515545e+001 8.750000e+000
      endloop
   endfacet
   facet normal 0.000000e+000 8.959558e-001 4.441432e-001
      outer loop
         vertex -1.700000e+001 1.515545e+001 8.750000e+000
         vertex 3.000000e+000 1.515545e+001 8.750000e+000
         vertex 3.000000e+000 1.653751e+001 5.723689e+000
      endloop
   endfacet
   facet normal 0.000000e+000 9.223873e-001 3.862663e-001
      outer loop
         vertex -1.700000e+001 1.515545e+001 8.750000e+000
         vertex 3.000000e+000 1.653751e+001 5.723689e+000
         vertex -1.700000e+001 1.653751e+001 5.723689e+000
      endloop
   endfacet
   facet normal 0.000000e+000 9.638194e-001 2.665562e-001
      outer loop
         vertex -1.700000e+001 1.653751e+001 5.723689e+000
         vertex 3.000000e+000 1.653751e+001 5.723689e+000
         vertex 3.000000e+000 1.732187e+001 2.490510e+000
      endloop
   endfacet
   facet normal 0.000000e+000 9.788200e-001 2.047230e-001
      outer loop
         vertex -1.700000e+001 1.653751e+001 5.723689e+000
         vertex 3.000000e+000 1.732187e+001 2.490510e+000
         vertex -1.700000e+001 1.732187e+001 2.490510e+000
      endloop
   endfacet
   facet normal 0.000000e+000 9.968480e-001 7.933516e-002
      outer loop
         vertex -1.700000e+001 1.732187e+001 2.490510e+000
         vertex 3.000000e+000 1.732187e+001 2.490510e+000
         vertex 3.000000e+000 1.748018e+001 -8.326835e-001
      endloop
   endfacet
   facet normal 0.000000e+000 9.998755e-001 1.578050e-002
      outer loop
         vertex -1.700000e+001 1.732187e+001 2.490510e+000
         vertex 3.000000e+000 1.748018e+001 -8.326835e-001
         vertex -1.700000e+001 1.748018e+001 -8.326835e-001
      endloop
   endfacet
   facet normal 0.000000e+000 9.938479e-001 -1.107532e-001
      outer loop
         vertex -1.700000e+001 1.748018e+001 -8.326835e-001
         vertex 3.000000e+000 1.748018e+001 -8.326835e-001
         vertex 3.000000e+000 1.700670e+001 -4.125782e+000
      endloop
   endfacet
   facet normal 0.000000e+000 9.847929e-001 -1.737323e-001
      outer loop
         vertex -1.700000e+001 1.748018e+001 -8.326835e-001
         vertex 3.000000e+000 1.700670e+001 -4.125782e+000
         vertex -1.700000e+001 1.700670e+001 -4.125782e+000
      endloop
   endfacet
   facet normal 0.000000e+000 9.549276e-001 -2.968387e-001
      outer loop
         vertex -1.700000e+001 1.700670e+001 -4.125782e+000
         vertex 3.000000e+000 1.700670e+001 -4.125782e+000
         vertex 3.000000e+000 1.591856e+001 -7.269763e+000
      endloop
   endfacet
   facet normal 0.000000e+000 9.341173e-001 -3.569661e-001
      outer loop
         vertex -1.700000e+001 1.700670e+001 -4.125782e+000
         vertex 3.000000e+000 1.591856e+001 -7.269763e+000
         vertex -1.700000e+001 1.591856e+001 -7.269763e+000
      endloop
   endfacet
   facet normal 0.000000e+000 8.814937e-001 -4.721957e-001
      outer loop
         vertex -1.700000e+001 1.591856e+001 -7.269763e+000
         vertex 3.000000e+000 1.591856e+001 -7.269763e+000
         vertex 3.000000e+000 1.425508e+001 -1.015100e+001
      endloop
   endfacet
   facet normal 0.000000e+000 8.496804e-001 -5.272981e-001
      outer loop
         vertex -1.700000e+001 1.591856e+001 -7.269763e+000
         vertex 3.000000e+000 1.425508e+001 -1.015100e+001
         vertex -1.700000e+001 1.425508e+001 -1.015100e+001
      endloop
   endfacet
   facet normal 0.000000e+000 7.762004e-001 -6.304863e-001
      outer loop
         vertex -1.700000e+001 1.425508e+001 -1.015100e+001
         vertex 3.000000e+000 1.425508e+001 -1.015100e+001
         vertex 3.000000e+000 1.207638e+001 -1.266535e+001
      endloop
   endfacet
   facet normal 0.000000e+000 7.345338e-001 -6.785721e-001
      outer loop
         vertex -1.700000e+001 1.425508e+001 -1.015100e+001
         vertex 3.000000e+000 1.207638e+001 -1.266535e+001
         vertex -1.700000e+001 1.207638e+001 -1.266535e+001
      endloop
   endfacet
   facet normal 0.000000e+000 6.428531e-001 -7.659895e-001
      outer loop
         vertex -1.700000e+001 1.207638e+001 -1.266535e+001
         vertex 3.000000e+000 1.207638e+001 -1.266535e+001
         vertex 3.000000e+000 9.461215e+000 -1.472194e+001
      endloop
   endfacet
   facet normal 0.000000e+000 5.928391e-001 -8.053209e-001
      outer loop
         vertex -1.700000e+001 1.207638e+001 -1.266535e+001
         vertex 3.000000e+000 9.461215e+000 -1.472194e+001
         vertex -1.700000e+001 9.461215e+000 -1.472194e+001
      endloop
   endfacet
   facet normal 0.000000e+000 4.862714e-001 -8.738078e-001
      outer loop
         vertex -1.700000e+001 9.461215e+000 -1.472194e+001
         vertex 3.000000e+000 9.461215e+000 -1.472194e+001
         vertex 3.000000e+000 6.504093e+000 -1.624644e+001
      endloop
   endfacet
   facet normal 0.000000e+000 4.297178e-001 -9.029632e-001
      outer loop
         vertex -1.700000e+001 9.461215e+000 -1.472194e+001
         vertex 3.000000e+000 6.504093e+000 -1.624644e+001
         vertex -1.700000e+001 6.504093e+000 -1.624644e+001
      endloop
   endfacet
   facet normal 0.000000e+000 3.121147e-001 -9.500445e-001
      outer loop
         vertex -1.700000e+001 6.504093e+000 -1.624644e+001
         vertex 3.000000e+000 6.504093e+000 -1.624644e+001
         vertex 3.000000e+000 3.311897e+000 -1.718375e+001
      endloop
   endfacet
   facet normal 0.000000e+000 2.510653e-001 -9.679702e-001
      outer loop
         vertex -1.700000e+001 6.504093e+000 -1.624644e+001
         vertex 3.000000e+000 3.311897e+000 -1.718375e+001
         vertex -1.700000e+001 3.311897e+000 -1.718375e+001
      endloop
   endfacet
   facet normal 0.000000e+000 1.266772e-001 -9.919440e-001
      outer loop
         vertex -1.700000e+001 3.311897e+000 -1.718375e+001
         vertex 3.000000e+000 3.311897e+000 -1.718375e+001
         vertex 3.000000e+000 0.000000e+000 -1.750000e+001
      endloop
   endfacet
   facet normal 0.000000e+000 6.333861e-002 -9.979921e-001
      outer loop
         vertex -1.700000e+001 3.311897e+000 -1.718375e+001
         vertex 3.000000e+000 0.000000e+000 -1.750000e+001
         vertex -1.700000e+001 0.000000e+000 -1.750000e+001
      endloop
   endfacet
   facet normal 0.000000e+000 -6.333861e-002 -9.979921e-001
      outer loop
         vertex -1.700000e+001 0.000000e+000 -1.750000e+001
         vertex 3.000000e+000 0.000000e+000 -1.750000e+001
         vertex 3.000000e+000 -3.311897e+000 -1.718375e+001
      endloop
   endfacet
   facet normal 0.000000e+000 -1.266772e-001 -9.919440e-001
      outer loop
         vertex -1.700000e+001 0.000000e+000 -1.750000e+001
         vertex 3.000000e+000 -3.311897e+000 -1.718375e+001
         vertex -1.700000e+001 -3.311897e+000 -1.718375e+001
      endloop
   endfacet
   facet normal 0.000000e+000 -2.510653e-001 -9.679702e-001
      outer loop
         vertex -1.700000e+001 -3.311897e+000 -1.718375e+001
         vertex 3.000000e+000 -3.311897e+000 -1.718375e+001
         vertex 3.000000e+000 -6.504093e+000 -1.624644e+001
      endloop
   endfacet
   facet normal 0.000000e+000 -3.121147e-001 -9.500445e-001
      outer loop
         vertex -1.700000e+001 -3.311897e+000 -1.718375e+001
         vertex 3.000000e+000 -6.504093e+000 -1.624644e+001
         vertex -1.700000e+001 -6.504093e+000 -1.624644e+001
      endloop
   endfacet
   facet normal 0.000000e+000 -4.297177e-001 -9.029633e-001
      outer loop
         vertex -1.700000e+001 -6.504093e+000 -1.624644e+001
         vertex 3.000000e+000 -6.504093e+000 -1.624644e+001
         vertex 3.000000e+000 -9.461215e+000 -1.472194e+001
      endloop
   endfacet
   facet normal 0.000000e+000 -4.862714e-001 -8.738078e-001
      outer loop
         vertex -1.700000e+001 -6.504093e+000 -1.624644e+001
         vertex 3.000000e+000 -9.461215e+000 -1.472194e+001
         vertex -1.700000e+001 -9.461215e+000 -1.472194e+001
      endloop
   endfacet
   facet normal 0.000000e+000 -5.928391e-001 -8.053209e-001
      outer loop
         vertex -1.700000e+001 -9.461215e+000 -1.472194e+001
         vertex 3.000000e+000 -9.461215e+000 -1.472194e+001
         vertex 3.000000e+000 -1.207638e+001 -1.266535e+001
      endloop
   endfacet
   facet normal 0.000000e+000 -6.428531e-001 -7.659895e-001
      outer loop
         vertex -1.700000e+001 -9.461215e+000 -1.472194e+001
         vertex 3.000000e+000 -1.207638e+001 -1.266535e+001
         vertex -1.700000e+001 -1.207638e+001 -1.266535e+001
      endloop
   endfacet
   facet normal 0.000000e+000 -7.345338e-001 -6.785721e-001
      outer loop
         vertex -1.700000e+001 -1.207638e+001 -1.266535e+001
         vertex 3.000000e+000 -1.207638e+001 -1.266535e+001
         vertex 3.000000e+000 -1.425508e+001 -1.015100e+001
      endloop
   endfacet
   facet normal 0.000000e+000 -7.762004e-001 -6.304863e-001
      outer loop
         vertex -1.700000e+001 -1.207638e+001 -1.266535e+001
         vertex 3.000000e+000 -1.425508e+001 -1.015100e+001
         vertex -1.700000e+001 -1.425508e+001 -1.015100e+001
      endloop
   endfacet
   facet normal 0.000000e+000 -8.496804e-001 -5.272981e-001
      outer loop
         vertex -1.700000e+001 -1.425508e+001 -1.015100e+001
         vertex 3.000000e+000 -1.425508e+001 -1.015100e+001
         vertex 3.000000e+000 -1.591856e+001 -7.269763e+000
      endloop
   endfacet
   facet normal 0.000000e+000 -8.814937e-001 -4.721957e-001
      outer loop
         vertex -1.700000e+001 -1.425508e+001 -1.015100e+001
         vertex 3.000000e+000 -1.591856e+001 -7.269763e+000
         vertex -1.700000e+001 -1.591856e+001 -7.269763e+000
      endloop
   endfacet
   facet normal 0.000000e+000 -9.341173e-001 -3.569661e-001
      outer loop
         vertex -1.700000e+001 -1.591856e+001 -7.269763e+000
         vertex 3.000000e+000 -1.591856e+001 -7.269763e+000
         vertex 3.000000e+000 -1.700670e+001 -4.125782e+000
      endloop
   endfacet
   facet normal 0.000000e+000 -9.549276e-001 -2.968388e-001
      outer loop
         vertex -1.700000e+001 -1.591856e+001 -7.269763e+000
         vertex 3.000000e+000 -1.700670e+001 -4.125782e+000
         vertex -1.700000e+001 -1.700670e+001 -4.125782e+000
      endloop
   endfacet
   facet normal 0.000000e+000 -9.847929e-001 -1.737323e-001
      outer loop
         vertex -1.700000e+001 -1.700670e+001 -4.125782e+000
         vertex 3.000000e+000 -1.700670e+001 -4.125782e+000
         vertex 3.000000e+000 -1.748018e+001 -8.326835e-001
      endloop
   endfacet
   facet normal 0.000000e+000 -9.938479e-001 -1.107532e-001
      outer loop
         vertex -1.700000e+001 -1.700670e+001 -4.125782e+000
         vertex 3.000000e+000 -1.748018e+001 -8.326835e-001
         vertex -1.700000e+001 -1.748018e+001 -8.326835e-001
      endloop
   endfacet
   facet normal 0.000000e+000 -9.998755e-001 1.578050e-002
      outer loop
         vertex -1.700000e+001 -1.748018e+001 -8.326835e-001
         vertex 3.000000e+000 -1.748018e+001 -8.326835e-001
         vertex 3.000000e+000 -1.732187e+001 2.490510e+000
      endloop
   endfacet
   facet normal 0.000000e+000 -9.968480e-001 7.933516e-002
      outer loop
         vertex -1.700000e+001 -1.748018e+001 -8.326835e-001
         vertex 3.000000e+000 -1.732187e+001 2.490510e+000
         vertex -1.700000e+001 -1.732187e+001 2.490510e+000
      endloop
   endfacet
   facet normal 0.000000e+000 -9.788200e-001 2.047230e-001
      outer loop
         vertex -1.700000e+001 -1.732187e+001 2.490510e+000
         vertex 3.000000e+000 -1.732187e+001 2.490510e+000
         vertex 3.000000e+000 -1.653751e+001 5.723689e+000
      endloop
   endfacet
   facet normal 0.000000e+000 -9.638194e-001 2.665562e-001
      outer loop
         vertex -1.700000e+001 -1.732187e+001 2.490510e+000
         vertex 3.000000e+000 -1.653751e+001 5.723689e+000
         vertex -1.700000e+001 -1.653751e+001 5.723689e+000
      endloop
   endfacet
   facet normal 0.000000e+000 -9.223873e-001 3.862663e-001
      outer loop
         vertex -1.700000e+001 -1.653751e+001 5.723689e+000
         vertex 3.000000e+000 -1.653751e+001 5.723689e+000
         vertex 3.000000e+000 -1.515545e+001 8.750000e+000
      endloop
   endfacet
   facet normal 0.000000e+000 -8.959558e-001 4.441432e-001
      outer loop
         vertex -1.700000e+001 -1.653751e+001 5.723689e+000
         vertex 3.000000e+000 -1.515545e+001 8.750000e+000
         vertex -1.700000e+001 -1.515545e+001 8.750000e+000
      endloop
   endfacet
   facet normal 0.000000e+000 -8.326172e-001 5.538489e-001
      outer loop
         vertex -1.700000e+001 -1.515545e+001 8.750000e+000
         vertex 3.000000e+000 -1.515545e+001 8.750000e+000
         vertex 3.000000e+000 -1.322562e+001 1.146006e+001
      endloop
   endfacet
   facet normal 0.000000e+000 -7.957100e-001 6.056777e-001
      outer loop
         vertex -1.700000e+001 -1.515545e+001 8.750000e+000
         vertex 3.000000e+000 -1.322562e+001 1.146006e+001
         vertex -1.700000e+001 -1.322562e+001 1.146006e+001
      endloop
   endfacet
   facet normal 0.000000e+000 -7.127541e-001 7.014139e-001
      outer loop
         vertex -1.700000e+001 -1.322562e+001 1.146006e+001
         vertex 3.000000e+000 -1.322562e+001 1.146006e+001
         vertex 3.000000e+000 -1.081778e+001 1.375593e+001
      endloop
   endfacet
   facet normal 0.000000e+000 -6.667053e-001 7.453215e-001
      outer loop
         vertex -1.700000e+001 -1.322562e+001 1.146006e+001
         vertex 3.000000e+000 -1.081778e+001 1.375593e+001
         vertex -1.700000e+001 -1.081778e+001 1.375593e+001
      endloop
   endfacet
   facet normal 0.000000e+000 -5.671303e-001 8.236281e-001
      outer loop
         vertex -1.700000e+001 -1.081778e+001 1.375593e+001
         vertex 3.000000e+000 -1.081778e+001 1.375593e+001
         vertex 3.000000e+000 -8.018964e+000 1.555462e+001
      endloop
   endfacet
   facet normal 0.000000e+000 -5.136040e-001 8.580273e-001
      outer loop
         vertex -1.700000e+001 -1.081778e+001 1.375593e+001
         vertex 3.000000e+000 -8.018964e+000 1.555462e+001
         vertex -1.700000e+001 -8.018964e+000 1.555462e+001
      endloop
   endfacet
   facet normal 0.000000e+000 -4.010089e-001 9.160742e-001
      outer loop
         vertex -1.700000e+001 -8.018964e+000 1.555462e+001
         vertex 3.000000e+000 -8.018964e+000 1.555462e+001
         vertex 3.000000e+000 -4.930320e+000 1.679113e+001
      endloop
   endfacet
   facet normal 0.000000e+000 -3.419398e-001 9.397218e-001
      outer loop
         vertex -1.700000e+001 -8.018964e+000 1.555462e+001
         vertex 3.000000e+000 -4.930320e+000 1.679113e+001
         vertex -1.700000e+001 -4.930320e+000 1.679113e+001
      endloop
   endfacet
   facet normal 0.000000e+000 -2.203939e-001 9.754109e-001
      outer loop
         vertex -1.700000e+001 -4.930320e+000 1.679113e+001
         vertex 3.000000e+000 -4.930320e+000 1.679113e+001
         vertex 3.000000e+000 -1.663481e+000 1.742076e+001
      endloop
   endfacet
   facet normal 0.000000e+000 -1.579170e-001 9.874524e-001
      outer loop
         vertex -1.700000e+001 -4.930320e+000 1.679113e+001
         vertex 3.000000e+000 -1.663481e+000 1.742076e+001
         vertex -1.700000e+001 -1.663481e+000 1.742076e+001
      endloop
   endfacet
   facet normal 0.000000e+000 -6.343456e-002 9.979860e-001
      outer loop
         vertex -1.700000e+001 -1.663481e+000 1.742076e+001
         vertex 3.000000e+000 -1.663481e+000 1.742076e+001
         vertex -1.700000e+001 -2.143132e-015 1.750000e+001
      endloop
   endfacet
   facet normal 1.000000e+000 0.000000e+000 0.000000e+000
      outer loop
         vertex 3.000000e+000 1.530734e+000 3.695518e+000
         vertex 3.000000e+000 2.828427e+000 2.828427e+000
         vertex 3.000000e+000 1.081778e+001 1.375593e+001
      endloop
   endfacet
   facet normal 1.000000e+000 0.000000e+000 0.000000e+000
      outer loop
         vertex 3.000000e+000 1.081778e+001 1.375593e+001
         vertex 3.000000e+000 8.018964e+000 1.555462e+001
         vertex 3.000000e+000 1.530734e+000 3.695518e+000
      endloop
   endfacet
   facet normal 1.000000e+000 0.000000e+000 0.000000e+000
      outer loop
         vertex 3.000000e+000 1.530734e+000 3.695518e+000
         vertex 3.000000e+000 8.018964e+000 1.555462e+001
         vertex 3.000000e+000 4.930320e+000 1.679113e+001
      endloop
   endfacet
   facet normal 1.000000e+000 0.000000e+000 0.000000e+000
      outer loop
         vertex 3.000000e+000 1.530734e+000 3.695518e+000
         vertex 3.000000e+000 4.930320e+000 1.679113e+001
         vertex 3.000000e+000 -1.469576e-015 4.000000e+000
      endloop
   endfacet
   facet normal 1.000000e+000 0.000000e+000 0.000000e+000
      outer loop
         vertex 3.000000e+000 -1.469576e-015 4.000000e+000
         vertex 3.000000e+000 4.930320e+000 1.679113e+001
         vertex 3.000000e+000 1.663481e+000 1.742076e+001
      endloop
   endfacet
   facet normal 1.000000e+000 0.000000e+000 0.000000e+000
      outer loop
         vertex 3.000000e+000 -1.469576e-015 4.000000e+000
         vertex 3.000000e+000 1.663481e+000 1.742076e+001
         vertex 3.000000e+000 -2.143132e-015 1.750000e+001
      endloop
   endfacet
   facet normal 1.000000e+000 0.000000e+000 0.000000e+000
      outer loop
         vertex 3.000000e+000 3.695518e+000 1.530734e+000
         vertex 3.000000e+000 1.515545e+001 8.750000e+000
         vertex 3.000000e+000 2.828427e+000 2.828427e+000
      endloop
   endfacet
   facet normal 1.000000e+000 0.000000e+000 0.000000e+000
      outer loop
         vertex 3.000000e+000 2.828427e+000 2.828427e+000
         vertex 3.000000e+000 1.515545e+001 8.750000e+000
         vertex 3.000000e+000 1.322562e+001 1.146006e+001
      endloop
   endfacet
   facet normal 1.000000e+000 0.000000e+000 0.000000e+000
      outer loop
         vertex 3.000000e+000 2.828427e+000 2.828427e+000
         vertex 3.000000e+000 1.322562e+001 1.146006e+001
         vertex 3.000000e+000 1.081778e+001 1.375593e+001
      endloop
   endfacet
   facet normal 1.000000e+000 0.000000e+000 0.000000e+000
      outer loop
         vertex 3.000000e+000 4.000000e+000 -6.204106e-015
         vertex 3.000000e+000 1.732187e+001 2.490510e+000
         vertex 3.000000e+000 3.695518e+000 1.530734e+000
      endloop
   endfacet
   facet normal 1.000000e+000 0.000000e+000 0.000000e+000
      outer loop
         vertex 3.000000e+000 3.695518e+000 1.530734e+000
         vertex 3.000000e+000 1.732187e+001 2.490510e+000
         vertex 3.000000e+000 1.653751e+001 5.723689e+000
      endloop
   endfacet
   facet normal 1.000000e+000 0.000000e+000 0.000000e+000
      outer loop
         vertex 3.000000e+000 3.695518e+000 1.530734e+000
         vertex 3.000000e+000 1.653751e+001 5.723689e+000
         vertex 3.000000e+000 1.515545e+001 8.750000e+000
      endloop
   endfacet
   facet normal 1.000000e+000 0.000000e+000 0.000000e+000
      outer loop
         vertex 3.000000e+000 3.695518e+000 -1.530734e+000
         vertex 3.000000e+000 1.700670e+001 -4.125782e+000
         vertex 3.000000e+000 4.000000e+000 -6.204106e-015
      endloop
   endfacet
   facet normal 1.000000e+000 0.000000e+000 0.000000e+000
      outer loop
         vertex 3.000000e+000 4.000000e+000 -6.204106e-015
         vertex 3.000000e+000 1.700670e+001 -4.125782e+000
         vertex 3.000000e+000 1.748018e+001 -8.326835e-001
      endloop
   endfacet
   facet normal 1.000000e+000 0.000000e+000 0.000000e+000
      outer loop
         vertex 3.000000e+000 4.000000e+000 -6.204106e-015
         vertex 3.000000e+000 1.748018e+001 -8.326835e-001
         vertex 3.000000e+000 1.732187e+001 2.490510e+000
      endloop
   endfacet
   facet normal 1.000000e+000 0.000000e+000 0.000000e+000
      outer loop
         vertex 3.000000e+000 2.828427e+000 -2.828427e+000
         vertex 3.000000e+000 1.425508e+001 -1.015100e+001
         vertex 3.000000e+000 3.695518e+000 -1.530734e+000
      endloop
   endfacet
   facet normal 1.000000e+000 0.000000e+000 0.000000e+000
      outer loop
         vertex 3.000000e+000 3.695518e+000 -1.530734e+000
         vertex 3.000000e+000 1.425508e+001 -1.015100e+001
         vertex 3.000000e+000 1.591856e+001 -7.269763e+000
      endloop
   endfacet
   facet normal 1.000000e+000 0.000000e+000 0.000000e+000
      outer loop
         vertex 3.000000e+000 3.695518e+000 -1.530734e+000
         vertex 3.000000e+000 1.591856e+001 -7.269763e+000
         vertex 3.000000e+000 1.700670e+001 -4.125782e+000
      endloop
   endfacet
   facet normal 1.000000e+000 0.000000e+000 0.000000e+000
      outer loop
         vertex 3.000000e+000 1.530734e+000 -3.695518e+000
         vertex 3.000000e+000 9.461215e+000 -1.472194e+001
         vertex 3.000000e+000 2.828427e+000 -2.828427e+000
      endloop
   endfacet
   facet normal 1.000000e+000 0.000000e+000 0.000000e+000
      outer loop
         vertex 3.000000e+000 2.828427e+000 -2.828427e+000
         vertex 3.000000e+000 9.461215e+000 -1.472194e+001
         vertex 3.000000e+000 1.207638e+001 -1.266535e+001
      endloop
   endfacet
   facet normal 1.000000e+000 0.000000e+000 0.000000e+000
      outer loop
         vertex 3.000000e+000 2.828427e+000 -2.828427e+000
         vertex 3.000000e+000 1.207638e+001 -1.266535e+001
         vertex 3.000000e+000 1.425508e+001 -1.015100e+001
      endloop
   endfacet
   facet normal 1.000000e+000 0.000000e+000 0.000000e+000
      outer loop
         vertex 3.000000e+000 0.000000e+000 -4.000000e+000
         vertex 3.000000e+000 3.311897e+000 -1.718375e+001
         vertex 3.000000e+000 1.530734e+000 -3.695518e+000
      endloop
   endfacet
   facet normal 1.000000e+000 0.000000e+000 0.000000e+000
      outer loop
         vertex 3.000000e+000 1.530734e+000 -3.695518e+000
         vertex 3.000000e+000 3.311897e+000 -1.718375e+001
         vertex 3.000000e+000 6.504093e+000 -1.624644e+001
      endloop
   endfacet
   facet normal 1.000000e+000 0.000000e+000 0.000000e+000
      outer loop
         vertex 3.000000e+000 1.530734e+000 -3.695518e+000
         vertex 3.000000e+000 6.504093e+000 -1.624644e+001
         vertex 3.000000e+000 9.461215e+000 -1.472194e+001
      endloop
   endfacet
   facet normal 1.000000e+000 0.000000e+000 0.000000e+000
      outer loop
         vertex 3.000000e+000 -1.530734e+000 -3.695518e+000
         vertex 3.000000e+000 -3.311897e+000 -1.718375e+001
         vertex 3.000000e+000 0.000000e+000 -4.000000e+000
      endloop
   endfacet
   facet normal 1.000000e+000 0.000000e+000 0.000000e+000
      outer loop
         vertex 3.000000e+000 0.000000e+000 -4.000000e+000
         vertex 3.000000e+000 -3.311897e+000 -1.718375e+001
         vertex 3.000000e+000 0.000000e+000 -1.750000e+001
      endloop
   endfacet
   facet normal 1.000000e+000 0.000000e+000 0.000000e+000
      outer loop
         vertex 3.000000e+000 0.000000e+000 -4.000000e+000
         vertex 3.000000e+000 0.000000e+000 -1.750000e+001
         vertex 3.000000e+000 3.311897e+000 -1.718375e+001
      endloop
   endfacet
   facet normal 1.000000e+000 0.000000e+000 0.000000e+000
      outer loop
         vertex 3.000000e+000 -2.828427e+000 -2.828427e+000
         vertex 3.000000e+000 -9.461215e+000 -1.472194e+001
         vertex 3.000000e+000 -1.530734e+000 -3.695518e+000
      endloop
   endfacet
   facet normal 1.000000e+000 0.000000e+000 0.000000e+000
      outer loop
         vertex 3.000000e+000 -1.530734e+000 -3.695518e+000
         vertex 3.000000e+000 -9.461215e+000 -1.472194e+001
         vertex 3.000000e+000 -6.504093e+000 -1.624644e+001
      endloop
   endfacet
   facet normal 1.000000e+000 0.000000e+000 0.000000e+000
      outer loop
         vertex 3.000000e+000 -1.530734e+000 -3.695518e+000
         vertex 3.000000e+000 -6.504093e+000 -1.624644e+001
         vertex 3.000000e+000 -3.311897e+000 -1.718375e+001
      endloop
   endfacet
   facet normal 1.000000e+000 0.000000e+000 0.000000e+000
      outer loop
         vertex 3.000000e+000 -3.695518e+000 -1.530734e+000
         vertex 3.000000e+000 -1.425508e+001 -1.015100e+001
         vertex 3.000000e+000 -2.828427e+000 -2.828427e+000
      endloop
   endfacet
   facet normal 1.000000e+000 0.000000e+000 0.000000e+000
      outer loop
         vertex 3.000000e+000 -2.828427e+000 -2.828427e+000
         vertex 3.000000e+000 -1.425508e+001 -1.015100e+001
         vertex 3.000000e+000 -1.207638e+001 -1.266535e+001
      endloop
   endfacet
   facet normal 1.000000e+000 0.000000e+000 0.000000e+000
      outer loop
         vertex 3.000000e+000 -2.828427e+000 -2.828427e+000
         vertex 3.000000e+000 -1.207638e+001 -1.266535e+001
         vertex 3.000000e+000 -9.461215e+000 -1.472194e+001
      endloop
   endfacet
   facet normal 1.000000e+000 0.000000e+000 0.000000e+000
      outer loop
         vertex 3.000000e+000 -4.000000e+000 -6.295645e-015
         vertex 3.000000e+000 -1.700670e+001 -4.125782e+000
         vertex 3.000000e+000 -3.695518e+000 -1.530734e+000
      endloop
   endfacet
   facet normal 1.000000e+000 0.000000e+000 0.000000e+000
      outer loop
         vertex 3.000000e+000 -3.695518e+000 -1.530734e+000
         vertex 3.000000e+000 -1.700670e+001 -4.125782e+000
         vertex 3.000000e+000 -1.591856e+001 -7.269763e+000
      endloop
   endfacet
   facet normal 1.000000e+000 0.000000e+000 0.000000e+000
      outer loop
         vertex 3.000000e+000 -3.695518e+000 -1.530734e+000
         vertex 3.000000e+000 -1.591856e+001 -7.269763e+000
         vertex 3.000000e+000 -1.425508e+001 -1.015100e+001
      endloop
   endfacet
   facet normal 1.000000e+000 0.000000e+000 0.000000e+000
      outer loop
         vertex 3.000000e+000 -3.695518e+000 1.530734e+000
         vertex 3.000000e+000 -1.732187e+001 2.490510e+000
         vertex 3.000000e+000 -4.000000e+000 -6.295645e-015
      endloop
   endfacet
   facet normal 1.000000e+000 0.000000e+000 0.000000e+000
      outer loop
         vertex 3.000000e+000 -4.000000e+000 -6.295645e-015
         vertex 3.000000e+000 -1.732187e+001 2.490510e+000
         vertex 3.000000e+000 -1.748018e+001 -8.326835e-001
      endloop
   endfacet
   facet normal 1.000000e+000 0.000000e+000 0.000000e+000
      outer loop
         vertex 3.000000e+000 -4.000000e+000 -6.295645e-015
         vertex 3.000000e+000 -1.748018e+001 -8.326835e-001
         vertex 3.000000e+000 -1.700670e+001 -4.125782e+000
      endloop
   endfacet
   facet normal 1.000000e+000 0.000000e+000 0.000000e+000
      outer loop
         vertex 3.000000e+000 -2.828427e+000 2.828427e+000
         vertex 3.000000e+000 -1.515545e+001 8.750000e+000
         vertex 3.000000e+000 -3.695518e+000 1.530734e+000
      endloop
   endfacet
   facet normal 1.000000e+000 0.000000e+000 0.000000e+000
      outer loop
         vertex 3.000000e+000 -3.695518e+000 1.530734e+000
         vertex 3.000000e+000 -1.515545e+001 8.750000e+000
         vertex 3.000000e+000 -1.653751e+001 5.723689e+000
      endloop
   endfacet
   facet normal 1.000000e+000 0.000000e+000 0.000000e+000
      outer loop
         vertex 3.000000e+000 -3.695518e+000 1.530734e+000
         vertex 3.000000e+000 -1.653751e+001 5.723689e+000
         vertex 3.000000e+000 -1.732187e+001 2.490510e+000
      endloop
   endfacet
   facet normal 1.000000e+000 0.000000e+000 0.000000e+000
      outer loop
         vertex 3.000000e+000 -1.530734e+000 3.695518e+000
         vertex 3.000000e+000 -1.081778e+001 1.375593e+001
         vertex 3.000000e+000 -2.828427e+000 2.828427e+000
      endloop
   endfacet
   facet normal 1.000000e+000 0.000000e+000 0.000000e+000
      outer loop
         vertex 3.000000e+000 -2.828427e+000 2.828427e+000
         vertex 3.000000e+000 -1.081778e+001 1.375593e+001
         vertex 3.000000e+000 -1.322562e+001 1.146006e+001
      endloop
   endfacet
   facet normal 1.000000e+000 0.000000e+000 0.000000e+000
      outer loop
         vertex 3.000000e+000 -2.828427e+000 2.828427e+000
         vertex 3.000000e+000 -1.322562e+001 1.146006e+001
         vertex 3.000000e+000 -1.515545e+001 8.750000e+000
      endloop
   endfacet
   facet normal 1.000000e+000 0.000000e+000 0.000000e+000
      outer loop
         vertex 3.000000e+000 -2.143132e-015 1.750000e+001
         vertex 3.000000e+000 -1.663481e+000 1.742076e+001
         vertex 3.000000e+000 -1.469576e-015 4.000000e+000
      endloop
   endfacet
   facet normal 1.000000e+000 0.000000e+000 0.000000e+000
      outer loop
         vertex 3.000000e+000 -1.469576e-015 4.000000e+000
         vertex 3.000000e+000 -1.663481e+000 1.742076e+001
         vertex 3.000000e+000 -4.930320e+000 1.679113e+001
      endloop
   endfacet
   facet normal 1.000000e+000 0.000000e+000 0.000000e+000
      outer loop
         vertex 3.000000e+000 -1.469576e-015 4.000000e+000
         vertex 3.000000e+000 -4.930320e+000 1.679113e+001
         vertex 3.000000e+000 -1.530734e+000 3.695518e+000
      endloop
   endfacet
   facet normal 1.000000e+000 0.000000e+000 0.000000e+000
      outer loop
         vertex 3.000000e+000 -1.530734e+000 3.695518e+000
         vertex 3.000000e+000 -4.930320e+000 1.679113e+001
         vertex 3.000000e+000 -8.018964e+000 1.555462e+001
      endloop
   endfacet
   facet normal 1.000000e+000 0.000000e+000 0.000000e+000
      outer loop
         vertex 3.000000e+000 -1.530734e+000 3.695518e+000
         vertex 3.000000e+000 -8.018964e+000 1.555462e+001
         vertex 3.000000e+000 -1.081778e+001 1.375593e+001
      endloop
   endfacet
   facet normal -1.000000e+000 0.000000e+000 0.000000e+000
      outer loop
         vertex -1.700000e+001 -6.429396e-015 1.750000e+001
         vertex -1.700000e+001 1.663481e+000 1.742076e+001
         vertex -1.700000e+001 0.000000e+000 -6.938894e-015
      endloop
   endfacet
   facet normal -1.000000e+000 0.000000e+000 0.000000e+000
      outer loop
         vertex -1.700000e+001 -8.018964e+000 1.555462e+001
         vertex -1.700000e+001 -4.930320e+000 1.679113e+001
         vertex -1.700000e+001 0.000000e+000 -6.938894e-015
      endloop
   endfacet
   facet normal -1.000000e+000 0.000000e+000 0.000000e+000
      outer loop
         vertex -1.700000e+001 0.000000e+000 -6.938894e-015
         vertex -1.700000e+001 -4.930320e+000 1.679113e+001
         vertex -1.700000e+001 -1.663481e+000 1.742076e+001
      endloop
   endfacet
   facet normal -1.000000e+000 0.000000e+000 0.000000e+000
      outer loop
         vertex -1.700000e+001 0.000000e+000 -6.938894e-015
         vertex -1.700000e+001 -1.663481e+000 1.742076e+001
         vertex -1.700000e+001 -6.429396e-015 1.750000e+001
      endloop
   endfacet
   facet normal -1.000000e+000 0.000000e+000 0.000000e+000
      outer loop
         vertex -1.700000e+001 -1.515545e+001 8.750000e+000
         vertex -1.700000e+001 -1.322562e+001 1.146006e+001
         vertex -1.700000e+001 0.000000e+000 -6.938894e-015
      endloop
   endfacet
   facet normal -1.000000e+000 0.000000e+000 0.000000e+000
      outer loop
         vertex -1.700000e+001 0.000000e+000 -6.938894e-015
         vertex -1.700000e+001 -1.322562e+001 1.146006e+001
         vertex -1.700000e+001 -1.081778e+001 1.375593e+001
      endloop
   endfacet
   facet normal -1.000000e+000 0.000000e+000 0.000000e+000
      outer loop
         vertex -1.700000e+001 0.000000e+000 -6.938894e-015
         vertex -1.700000e+001 -1.081778e+001 1.375593e+001
         vertex -1.700000e+001 -8.018964e+000 1.555462e+001
      endloop
   endfacet
   facet normal -1.000000e+000 0.000000e+000 0.000000e+000
      outer loop
         vertex -1.700000e+001 -1.748018e+001 -8.326835e-001
         vertex -1.700000e+001 -1.732187e+001 2.490510e+000
         vertex -1.700000e+001 0.000000e+000 -6.938894e-015
      endloop
   endfacet
   facet normal -1.000000e+000 0.000000e+000 0.000000e+000
      outer loop
         vertex -1.700000e+001 0.000000e+000 -6.938894e-015
         vertex -1.700000e+001 -1.732187e+001 2.490510e+000
         vertex -1.700000e+001 -1.653751e+001 5.723689e+000
      endloop
   endfacet
   facet normal -1.000000e+000 0.000000e+000 0.000000e+000
      outer loop
         vertex -1.700000e+001 0.000000e+000 -6.938894e-015
         vertex -1.700000e+001 -1.653751e+001 5.723689e+000
         vertex -1.700000e+001 -1.515545e+001 8.750000e+000
      endloop
   endfacet
   facet normal -1.000000e+000 0.000000e+000 0.000000e+000
      outer loop
         vertex -1.700000e+001 -1.425508e+001 -1.015100e+001
         vertex -1.700000e+001 -1.591856e+001 -7.269763e+000
         vertex -1.700000e+001 0.000000e+000 -6.938894e-015
      endloop
   endfacet
   facet normal -1.000000e+000 0.000000e+000 0.000000e+000
      outer loop
         vertex -1.700000e+001 0.000000e+000 -6.938894e-015
         vertex -1.700000e+001 -1.591856e+001 -7.269763e+000
         vertex -1.700000e+001 -1.700670e+001 -4.125782e+000
      endloop
   endfacet
   facet normal -1.000000e+000 0.000000e+000 0.000000e+000
      outer loop
         vertex -1.700000e+001 0.000000e+000 -6.938894e-015
         vertex -1.700000e+001 -1.700670e+001 -4.125782e+000
         vertex -1.700000e+001 -1.748018e+001 -8.326835e-001
      endloop
   endfacet
   facet normal -1.000000e+000 0.000000e+000 0.000000e+000
      outer loop
         vertex -1.700000e+001 -6.504093e+000 -1.624644e+001
         vertex -1.700000e+001 -9.461215e+000 -1.472194e+001
         vertex -1.700000e+001 0.000000e+000 -6.938894e-015
      endloop
   endfacet
   facet normal -1.000000e+000 0.000000e+000 0.000000e+000
      outer loop
         vertex -1.700000e+001 0.000000e+000 -6.938894e-015
         vertex -1.700000e+001 -9.461215e+000 -1.472194e+001
         vertex -1.700000e+001 -1.207638e+001 -1.266535e+001
      endloop
   endfacet
   facet normal -1.000000e+000 0.000000e+000 0.000000e+000
      outer loop
         vertex -1.700000e+001 0.000000e+000 -6.938894e-015
         vertex -1.700000e+001 -1.207638e+001 -1.266535e+001
         vertex -1.700000e+001 -1.425508e+001 -1.015100e+001
      endloop
   endfacet
   facet normal -1.000000e+000 0.000000e+000 0.000000e+000
      outer loop
         vertex -1.700000e+001 3.311897e+000 -1.718375e+001
         vertex -1.700000e+001 0.000000e+000 -1.750000e+001
         vertex -1.700000e+001 0.000000e+000 -6.938894e-015
      endloop
   endfacet
   facet normal -1.000000e+000 0.000000e+000 0.000000e+000
      outer loop
         vertex -1.700000e+001 0.000000e+000 -6.938894e-015
         vertex -1.700000e+001 0.000000e+000 -1.750000e+001
         vertex -1.700000e+001 -3.311897e+000 -1.718375e+001
      endloop
   endfacet
   facet normal -1.000000e+000 0.000000e+000 0.000000e+000
      outer loop
         vertex -1.700000e+001 0.000000e+000 -6.938894e-015
         vertex -1.700000e+001 -3.311897e+000 -1.718375e+001
         vertex -1.700000e+001 -6.504093e+000 -1.624644e+001
      endloop
   endfacet
   facet normal -1.000000e+000 0.000000e+000 0.000000e+000
      outer loop
         vertex -1.700000e+001 1.207638e+001 -1.266535e+001
         vertex -1.700000e+001 9.461215e+000 -1.472194e+001
         vertex -1.700000e+001 0.000000e+000 -6.938894e-015
      endloop
   endfacet
   facet normal -1.000000e+000 0.000000e+000 0.000000e+000
      outer loop
         vertex -1.700000e+001 0.000000e+000 -6.938894e-015
         vertex -1.700000e+001 9.461215e+000 -1.472194e+001
         vertex -1.700000e+001 6.504093e+000 -1.624644e+001
      endloop
   endfacet
   facet normal -1.000000e+000 0.000000e+000 0.000000e+000
      outer loop
         vertex -1.700000e+001 0.000000e+000 -6.938894e-015
         vertex -1.700000e+001 6.504093e+000 -1.624644e+001
         vertex -1.700000e+001 3.311897e+000 -1.718375e+001
      endloop
   endfacet
   facet normal -1.000000e+000 0.000000e+000 0.000000e+000
      outer loop
         vertex -1.700000e+001 1.700670e+001 -4.125782e+000
         vertex -1.700000e+001 1.591856e+001 -7.269763e+000
         vertex -1.700000e+001 0.000000e+000 -6.938894e-015
      endloop
   endfacet
   facet normal -1.000000e+000 0.000000e+000 0.000000e+000
      outer loop
         vertex -1.700000e+001 0.000000e+000 -6.938894e-015
         vertex -1.700000e+001 1.591856e+001 -7.269763e+000
         vertex -1.700000e+001 1.425508e+001 -1.015100e+001
      endloop
   endfacet
   facet normal -1.000000e+000 0.000000e+000 0.000000e+000
      outer loop
         vertex -1.700000e+001 0.000000e+000 -6.938894e-015
         vertex -1.700000e+001 1.425508e+001 -1.015100e+001
         vertex -1.700000e+001 1.207638e+001 -1.266535e+001
      endloop
   endfacet
   facet normal -1.000000e+000 0.000000e+000 0.000000e+000
      outer loop
         vertex -1.700000e+001 1.653751e+001 5.723689e+000
         vertex -1.700000e+001 1.732187e+001 2.490510e+000
         vertex -1.700000e+001 0.000000e+000 -6.938894e-015
      endloop
   endfacet
   facet normal -1.000000e+000 0.000000e+000 0.000000e+000
      outer loop
         vertex -1.700000e+001 0.000000e+000 -6.938894e-015
         vertex -1.700000e+001 1.732187e+001 2.490510e+000
         vertex -1.700000e+001 1.748018e+001 -8.326835e-001
      endloop
   endfacet
   facet normal -1.000000e+000 0.000000e+000 0.000000e+000
      outer loop
         vertex -1.700000e+001 0.000000e+000 -6.938894e-015
         vertex -1.700000e+001 1.748018e+001 -8.326835e-001
         vertex -1.700000e+001 1.700670e+001 -4.125782e+000
      endloop
   endfacet
   facet normal -1.000000e+000 0.000000e+000 0.000000e+000
      outer loop
         vertex -1.700000e+001 1.081778e+001 1.375593e+001
         vertex -1.700000e+001 1.322562e+001 1.146006e+001
         vertex -1.700000e+001 0.000000e+000 -6.938894e-015
      endloop
   endfacet
   facet normal -1.000000e+000 0.000000e+000 0.000000e+000
      outer loop
         vertex -1.700000e+001 0.000000e+000 -6.938894e-015
         vertex -1.700000e+001 1.322562e+001 1.146006e+001
         vertex -1.700000e+001 1.515545e+001 8.750000e+000
      endloop
   endfacet
   facet normal -1.000000e+000 0.000000e+000 0.000000e+000
      outer loop
         vertex -1.700000e+001 0.000000e+000 -6.938894e-015
         vertex -1.700000e+001 1.515545e+001 8.750000e+000
         vertex -1.700000e+001 1.653751e+001 5.723689e+000
      endloop
   endfacet
   facet normal -1.000000e+000 0.000000e+000 0.000000e+000
      outer loop
         vertex -1.700000e+001 1.663481e+000 1.742076e+001
         vertex -1.700000e+001 4.930320e+000 1.679113e+001
         vertex -1.700000e+001 0.000000e+000 -6.938894e-015
      endloop
   endfacet
   facet normal -1.000000e+000 0.000000e+000 0.000000e+000
      outer loop
         vertex -1.700000e+001 0.000000e+000 -6.938894e-015
         vertex -1.700000e+001 4.930320e+000 1.679113e+001
         vertex -1.700000e+001 8.018964e+000 1.555462e+001
      endloop
   endfacet
   facet normal -1.000000e+000 0.000000e+000 0.000000e+000
      outer loop
         vertex -1.700000e+001 0.000000e+000 -6.938894e-015
         vertex -1.700000e+001 8.018964e+000 1.555462e+001
         vertex -1.700000e+001 1.081778e+001 1.375593e+001
      endloop
   endfacet
   facet normal 0.000000e+000 -2.595505e-001 -9.657295e-001
      outer loop
         vertex 3.000000e+000 0.000000e+000 -4.000000e+000
         vertex 2.607179e+001 -1.530734e+000 -3.695518e+000
         vertex 3.000000e+000 -1.530734e+000 -3.695518e+000
      endloop
   endfacet
   facet normal 0.000000e+000 -4.993440e-001 -8.664038e-001
      outer loop
         vertex 3.000000e+000 -1.530734e+000 -3.695518e+000
         vertex 2.607179e+001 -1.530734e+000 -3.695518e+000
         vertex 2.607179e+001 -2.828427e+000 -2.828427e+000
      endloop
   endfacet
   facet normal 0.000000e+000 -6.093621e-001 -7.928920e-001
      outer loop
         vertex 3.000000e+000 -1.530734e+000 -3.695518e+000
         vertex 2.607179e+001 -2.828427e+000 -2.828427e+000
         vertex 3.000000e+000 -2.828427e+000 -2.828427e+000
      endloop
   endfacet
   facet normal 0.000000e+000 -7.928920e-001 -6.093621e-001
      outer loop
         vertex 3.000000e+000 -2.828427e+000 -2.828427e+000
         vertex 2.607179e+001 -2.828427e+000 -2.828427e+000
         vertex 2.607179e+001 -3.695518e+000 -1.530734e+000
      endloop
   endfacet
   facet normal 0.000000e+000 -8.664038e-001 -4.993440e-001
      outer loop
         vertex 3.000000e+000 -2.828427e+000 -2.828427e+000
         vertex 2.607179e+001 -3.695518e+000 -1.530734e+000
         vertex 3.000000e+000 -3.695518e+000 -1.530734e+000
      endloop
   endfacet
   facet normal 0.000000e+000 -9.657295e-001 -2.595505e-001
      outer loop
         vertex 3.000000e+000 -3.695518e+000 -1.530734e+000
         vertex 2.607179e+001 -3.695518e+000 -1.530734e+000
         vertex 2.607179e+001 -4.000000e+000 -6.295645e-015
      endloop
   endfacet
   facet normal 0.000000e+000 -9.915434e-001 -1.297753e-001
      outer loop
         vertex 3.000000e+000 -3.695518e+000 -1.530734e+000
         vertex 2.607179e+001 -4.000000e+000 -6.295645e-015
         vertex 3.000000e+000 -4.000000e+000 -6.295645e-015
      endloop
   endfacet
   facet normal 0.000000e+000 -9.915434e-001 1.297753e-001
      outer loop
         vertex 3.000000e+000 -4.000000e+000 -6.295645e-015
         vertex 2.607179e+001 -4.000000e+000 -6.295645e-015
         vertex 2.607179e+001 -3.695518e+000 1.530734e+000
      endloop
   endfacet
   facet normal 0.000000e+000 -9.657295e-001 2.595505e-001
      outer loop
         vertex 3.000000e+000 -4.000000e+000 -6.295645e-015
         vertex 2.607179e+001 -3.695518e+000 1.530734e+000
         vertex 3.000000e+000 -3.695518e+000 1.530734e+000
      endloop
   endfacet
   facet normal 0.000000e+000 -8.664038e-001 4.993440e-001
      outer loop
         vertex 3.000000e+000 -3.695518e+000 1.530734e+000
         vertex 2.607179e+001 -3.695518e+000 1.530734e+000
         vertex 2.607179e+001 -2.828427e+000 2.828427e+000
      endloop
   endfacet
   facet normal 0.000000e+000 -7.928920e-001 6.093621e-001
      outer loop
         vertex 3.000000e+000 -3.695518e+000 1.530734e+000
         vertex 2.607179e+001 -2.828427e+000 2.828427e+000
         vertex 3.000000e+000 -2.828427e+000 2.828427e+000
      endloop
   endfacet
   facet normal 0.000000e+000 -6.093621e-001 7.928920e-001
      outer loop
         vertex 3.000000e+000 -2.828427e+000 2.828427e+000
         vertex 2.607179e+001 -2.828427e+000 2.828427e+000
         vertex 2.607179e+001 -1.530734e+000 3.695518e+000
      endloop
   endfacet
   facet normal 0.000000e+000 -4.993440e-001 8.664038e-001
      outer loop
         vertex 3.000000e+000 -2.828427e+000 2.828427e+000
         vertex 2.607179e+001 -1.530734e+000 3.695518e+000
         vertex 3.000000e+000 -1.530734e+000 3.695518e+000
      endloop
   endfacet
   facet normal 0.000000e+000 -2.595505e-001 9.657295e-001
      outer loop
         vertex 3.000000e+000 -1.530734e+000 3.695518e+000
         vertex 2.607179e+001 -1.530734e+000 3.695518e+000
         vertex 2.607179e+001 -4.898587e-016 4.000000e+000
      endloop
   endfacet
   facet normal 0.000000e+000 -1.297753e-001 9.915434e-001
      outer loop
         vertex 3.000000e+000 -1.530734e+000 3.695518e+000
         vertex 2.607179e+001 -4.898587e-016 4.000000e+000
         vertex 3.000000e+000 -4.898587e-016 4.000000e+000
      endloop
   endfacet
   facet normal 0.000000e+000 1.297753e-001 9.915434e-001
      outer loop
         vertex 3.000000e+000 -4.898587e-016 4.000000e+000
         vertex 2.607179e+001 -4.898587e-016 4.000000e+000
         vertex 2.607179e+001 1.530734e+000 3.695518e+000
      endloop
   endfacet
   facet normal 0.000000e+000 2.595505e-001 9.657295e-001
      outer loop
         vertex 3.000000e+000 -4.898587e-016 4.000000e+000
         vertex 2.607179e+001 1.530734e+000 3.695518e+000
         vertex 3.000000e+000 1.530734e+000 3.695518e+000
      endloop
   endfacet
   facet normal 0.000000e+000 4.993440e-001 8.664038e-001
      outer loop
         vertex 3.000000e+000 1.530734e+000 3.695518e+000
         vertex 2.607179e+001 1.530734e+000 3.695518e+000
         vertex 2.607179e+001 2.828427e+000 2.828427e+000
      endloop
   endfacet
   facet normal 0.000000e+000 6.093621e-001 7.928920e-001
      outer loop
         vertex 3.000000e+000 1.530734e+000 3.695518e+000
         vertex 2.607179e+001 2.828427e+000 2.828427e+000
         vertex 3.000000e+000 2.828427e+000 2.828427e+000
      endloop
   endfacet
   facet normal 0.000000e+000 7.928920e-001 6.093621e-001
      outer loop
         vertex 3.000000e+000 2.828427e+000 2.828427e+000
         vertex 2.607179e+001 2.828427e+000 2.828427e+000
         vertex 2.607179e+001 3.695518e+000 1.530734e+000
      endloop
   endfacet
   facet normal 0.000000e+000 8.664038e-001 4.993440e-001
      outer loop
         vertex 3.000000e+000 2.828427e+000 2.828427e+000
         vertex 2.607179e+001 3.695518e+000 1.530734e+000
         vertex 3.000000e+000 3.695518e+000 1.530734e+000
      endloop
   endfacet
   facet normal 0.000000e+000 9.657295e-001 2.595505e-001
      outer loop
         vertex 3.000000e+000 3.695518e+000 1.530734e+000
         vertex 2.607179e+001 3.695518e+000 1.530734e+000
         vertex 2.607179e+001 4.000000e+000 -6.204106e-015
      endloop
   endfacet
   facet normal 0.000000e+000 9.915434e-001 1.297753e-001
      outer loop
         vertex 3.000000e+000 3.695518e+000 1.530734e+000
         vertex 2.607179e+001 4.000000e+000 -6.204106e-015
         vertex 3.000000e+000 4.000000e+000 -6.204106e-015
      endloop
   endfacet
   facet normal 0.000000e+000 9.915434e-001 -1.297753e-001
      outer loop
         vertex 3.000000e+000 4.000000e+000 -6.204106e-015
         vertex 2.607179e+001 4.000000e+000 -6.204106e-015
         vertex 2.607179e+001 3.695518e+000 -1.530734e+000
      endloop
   endfacet
   facet normal 0.000000e+000 9.657295e-001 -2.595505e-001
      outer loop
         vertex 3.000000e+000 4.000000e+000 -6.204106e-015
         vertex 2.607179e+001 3.695518e+000 -1.530734e+000
         vertex 3.000000e+000 3.695518e+000 -1.530734e+000
      endloop
   endfacet
   facet normal 0.000000e+000 8.664038e-001 -4.993440e-001
      outer loop
         vertex 3.000000e+000 3.695518e+000 -1.530734e+000
         vertex 2.607179e+001 3.695518e+000 -1.530734e+000
         vertex 2.607179e+001 2.828427e+000 -2.828427e+000
      endloop
   endfacet
   facet normal 0.000000e+000 7.928920e-001 -6.093621e-001
      outer loop
         vertex 3.000000e+000 3.695518e+000 -1.530734e+000
         vertex 2.607179e+001 2.828427e+000 -2.828427e+000
         vertex 3.000000e+000 2.828427e+000 -2.828427e+000
      endloop
   endfacet
   facet normal 0.000000e+000 6.093621e-001 -7.928920e-001
      outer loop
         vertex 3.000000e+000 2.828427e+000 -2.828427e+000
         vertex 2.607179e+001 2.828427e+000 -2.828427e+000
         vertex 2.607179e+001 1.530734e+000 -3.695518e+000
      endloop
   endfacet
   facet normal 0.000000e+000 4.993440e-001 -8.664038e-001
      outer loop
         vertex 3.000000e+000 2.828427e+000 -2.828427e+000
         vertex 2.607179e+001 1.530734e+000 -3.695518e+000
         vertex 3.000000e+000 1.530734e+000 -3.695518e+000
      endloop
   endfacet
   facet normal 0.000000e+000 2.595505e-001 -9.657295e-001
      outer loop
         vertex 3.000000e+000 1.530734e+000 -3.695518e+000
         vertex 2.607179e+001 1.530734e+000 -3.695518e+000
         vertex 2.607179e+001 0.000000e+000 -4.000000e+000
      endloop
   endfacet
   facet normal 0.000000e+000 1.297753e-001 -9.915434e-001
      outer loop
         vertex 3.000000e+000 1.530734e+000 -3.695518e+000
         vertex 2.607179e+001 0.000000e+000 -4.000000e+000
         vertex 3.000000e+000 0.000000e+000 -4.000000e+000
      endloop
   endfacet
   facet normal 0.000000e+000 -1.297753e-001 -9.915434e-001
      outer loop
         vertex 3.000000e+000 0.000000e+000 -4.000000e+000
         vertex 2.607179e+001 0.000000e+000 -4.000000e+000
         vertex 2.607179e+001 -1.530734e+000 -3.695518e+000
      endloop
   endfacet
   facet normal 5.064667e-001 -4.305641e-001 -7.470649e-001
      outer loop
         vertex 2.607179e+001 -2.828427e+000 -2.828427e+000
         vertex 2.607179e+001 -1.530734e+000 -3.695518e+000
         vertex 3.300000e+001 0.000000e+000 -6.938894e-015
      endloop
   endfacet
   facet normal 5.064667e-001 -6.836787e-001 -5.254283e-001
      outer loop
         vertex 2.607179e+001 -2.828427e+000 -2.828427e+000
         vertex 3.300000e+001 0.000000e+000 -6.938894e-015
         vertex 2.607179e+001 -3.695518e+000 -1.530734e+000
      endloop
   endfacet
   facet normal 5.064667e-001 -8.327095e-001 -2.237999e-001
      outer loop
         vertex 2.607179e+001 -4.000000e+000 -6.494805e-015
         vertex 2.607179e+001 -3.695518e+000 -1.530734e+000
         vertex 3.300000e+001 0.000000e+000 -6.938894e-015
      endloop
   endfacet
   facet normal 5.064667e-001 -8.549678e-001 1.119000e-001
      outer loop
         vertex 2.607179e+001 -3.695518e+000 1.530734e+000
         vertex 2.607179e+001 -4.000000e+000 -6.494805e-015
         vertex 3.300000e+001 0.000000e+000 -6.938894e-015
      endloop
   endfacet
   facet normal 5.064667e-001 -7.470649e-001 4.305641e-001
      outer loop
         vertex 2.607179e+001 -2.828427e+000 2.828427e+000
         vertex 2.607179e+001 -3.695518e+000 1.530734e+000
         vertex 3.300000e+001 0.000000e+000 -6.938894e-015
      endloop
   endfacet
   facet normal 5.064667e-001 -5.254283e-001 6.836787e-001
      outer loop
         vertex 2.607179e+001 -1.530734e+000 3.695518e+000
         vertex 2.607179e+001 -2.828427e+000 2.828427e+000
         vertex 3.300000e+001 0.000000e+000 -6.938894e-015
      endloop
   endfacet
   facet normal 5.064667e-001 -2.237999e-001 8.327095e-001
      outer loop
         vertex 2.607179e+001 6.661338e-016 4.000000e+000
         vertex 2.607179e+001 -1.530734e+000 3.695518e+000
         vertex 3.300000e+001 0.000000e+000 -6.938894e-015
      endloop
   endfacet
   facet normal 5.064667e-001 1.119000e-001 8.549678e-001
      outer loop
         vertex 2.607179e+001 1.530734e+000 3.695518e+000
         vertex 2.607179e+001 6.661338e-016 4.000000e+000
         vertex 3.300000e+001 0.000000e+000 -6.938894e-015
      endloop
   endfacet
   facet normal 5.064667e-001 4.305641e-001 7.470649e-001
      outer loop
         vertex 2.607179e+001 2.828427e+000 2.828427e+000
         vertex 2.607179e+001 1.530734e+000 3.695518e+000
         vertex 3.300000e+001 0.000000e+000 -6.938894e-015
      endloop
   endfacet
   facet normal 5.064667e-001 6.836787e-001 5.254283e-001
      outer loop
         vertex 2.607179e+001 3.695518e+000 1.530734e+000
         vertex 2.607179e+001 2.828427e+000 2.828427e+000
         vertex 3.300000e+001 0.000000e+000 -6.938894e-015
      endloop
   endfacet
   facet normal 5.064667e-001 8.327095e-001 2.237999e-001
      outer loop
         vertex 2.607179e+001 4.000000e+000 -8.049117e-015
         vertex 2.607179e+001 3.695518e+000 1.530734e+000
         vertex 3.300000e+001 0.000000e+000 -6.938894e-015
      endloop
   endfacet
   facet normal 5.064667e-001 8.549678e-001 -1.119000e-001
      outer loop
         vertex 2.607179e+001 3.695518e+000 -1.530734e+000
         vertex 2.607179e+001 4.000000e+000 -8.049117e-015
         vertex 3.300000e+001 0.000000e+000 -6.938894e-015
      endloop
   endfacet
   facet normal 5.064667e-001 7.470649e-001 -4.305641e-001
      outer loop
         vertex 2.607179e+001 2.828427e+000 -2.828427e+000
         vertex 2.607179e+001 3.695518e+000 -1.530734e+000
         vertex 3.300000e+001 0.000000e+000 -6.938894e-015
      endloop
   endfacet
   facet normal 5.064667e-001 5.254283e-001 -6.836787e-001
      outer loop
         vertex 2.607179e+001 1.530734e+000 -3.695518e+000
         vertex 2.607179e+001 2.828427e+000 -2.828427e+000
         vertex 3.300000e+001 0.000000e+000 -6.938894e-015
      endloop
   endfacet
   facet normal 5.064667e-001 2.237999e-001 -8.327095e-001
      outer loop
         vertex 2.607179e+001 0.000000e+000 -4.000000e+000
         vertex 2.607179e+001 1.530734e+000 -3.695518e+000
         vertex 3.300000e+001 0.000000e+000 -6.938894e-015
      endloop
   endfacet
   facet normal 5.064667e-001 -1.119000e-001 -8.549678e-001
      outer loop
         vertex 2.607179e+001 -1.530734e+000 -3.695518e+000
         vertex 2.607179e+001 0.000000e+000 -4.000000e+000
         vertex 3.300000e+001 0.000000e+000 -6.938894e-015
      endloop
   endfacet
endsolid